<?xml version="1.0" encoding="UTF-8" standalone="no"?>
<svg
   xmlns:dc="http://purl.org/dc/elements/1.1/"
   xmlns:cc="http://creativecommons.org/ns#"
   xmlns:rdf="http://www.w3.org/1999/02/22-rdf-syntax-ns#"
   xmlns:svg="http://www.w3.org/2000/svg"
   xmlns="http://www.w3.org/2000/svg"
   id="svg8"
   version="1.1"
   viewBox="0 0 67.733331 67.733335"
   height="256"
   width="256">
  <defs
     id="defs2" />
  <metadata
     id="metadata5">
    <rdf:RDF>
      <cc:Work
         rdf:about="">
        <dc:format>image/svg+xml</dc:format>
        <dc:type
           rdf:resource="http://purl.org/dc/dcmitype/StillImage" />
        <dc:title></dc:title>
      </cc:Work>
    </rdf:RDF>
  </metadata>
  <g
     transform="translate(0,-229.26664)"
     id="layer1">
    <path
       id="path27"
       d="m 29.795897,296.34082 c -4.290456,-1.70969 -6.831515,-6.07512 -6.120894,-10.51544 0.289626,-1.8097 0.694222,-2.6881 2.113929,-4.58944 l 1.030042,-1.37947 -0.003,-7.76038 -0.003,-7.76037 -2.317428,-2.53221 c -1.274589,-1.39271 -4.538334,-4.96917 -7.252771,-7.94769 l -4.935339,-5.41549 -1.695367,-0.0162 c -2.1479452,-0.0205 -3.9917322,-0.64217 -5.6516212,-1.90551 -5.88101898,-4.47606 -4.8340729,-13.23749 1.967043,-16.4613 1.237439,-0.58656 1.821754,-0.69147 3.8513862,-0.69147 2.16338,0 2.560396,0.0825 4.143549,0.86099 2.079911,1.02276 3.710643,2.6888 4.68696,4.78845 0.553668,1.19072 0.711808,1.96755 0.760204,3.73434 l 0.06112,2.23087 4.629223,5.05452 c 7.954446,8.68525 7.338668,8.10115 8.540473,8.10115 0.581915,0 1.298339,-0.16813 1.592048,-0.37361 0.293702,-0.20548 3.154889,-3.25497 6.358193,-6.77664 5.492787,-6.03871 5.819591,-6.45585 5.743631,-7.33118 -0.108356,-1.24886 0.418707,-3.6927 1.074531,-4.98216 1.775976,-3.4919 5.395883,-5.61853 9.173153,-5.38907 3.65684,0.22214 7.25769,2.83587 8.50895,6.17634 0.74675,1.99354 0.74833,4.88869 0.004,6.87641 -0.76605,2.04509 -2.7614,4.15088 -4.95553,5.2298 -1.53056,0.75263 -2.03333,0.86458 -4.00988,0.89288 l -2.25989,0.0324 -2.66637,2.9006 c -5.013757,5.45417 -12.244357,13.47329 -12.437091,13.79339 -0.105879,0.17586 -0.192878,3.54828 -0.193313,7.49428 l -7.51e-4,7.17454 0.905707,1.11573 c 3.539786,4.3606 3.21703,9.76316 -0.802495,13.43255 -2.793989,2.55062 -6.479796,3.27681 -9.838459,1.93842 z"
       style="fill:#ff0000;stroke-width:0.26507568;fill-opacity:1" />
  </g>
</svg>
