<?xml version="1.0" encoding="UTF-8" standalone="no"?>
<svg
   xmlns:dc="http://purl.org/dc/elements/1.1/"
   xmlns:cc="http://creativecommons.org/ns#"
   xmlns:rdf="http://www.w3.org/1999/02/22-rdf-syntax-ns#"
   xmlns:svg="http://www.w3.org/2000/svg"
   xmlns="http://www.w3.org/2000/svg"
   xmlns:sodipodi="http://sodipodi.sourceforge.net/DTD/sodipodi-0.dtd"
   xmlns:inkscape="http://www.inkscape.org/namespaces/inkscape"
   id="svg8"
   version="1.1"
   viewBox="0 0 6.3499999 6.3500002"
   height="24"
   width="24"
   sodipodi:docname="table-cell-selection.svg"
   inkscape:version="0.92.3 (2405546, 2018-03-11)">
  <sodipodi:namedview
     pagecolor="#ffffff"
     bordercolor="#666666"
     borderopacity="1"
     objecttolerance="10"
     gridtolerance="10"
     guidetolerance="10"
     inkscape:pageopacity="0"
     inkscape:pageshadow="2"
     inkscape:window-width="2715"
     inkscape:window-height="1474"
     id="namedview7"
     showgrid="false"
     inkscape:zoom="40.126854"
     inkscape:cx="17.04814"
     inkscape:cy="13.199936"
     inkscape:window-x="-8"
     inkscape:window-y="-8"
     inkscape:window-maximized="1"
     inkscape:current-layer="svg8"
     inkscape:snap-page="true" />
  <defs
     id="defs2" />
  <metadata
     id="metadata5">
    <rdf:RDF>
      <cc:Work
         rdf:about="">
        <dc:format>image/svg+xml</dc:format>
        <dc:type
           rdf:resource="http://purl.org/dc/dcmitype/StillImage" />
        <dc:title />
      </cc:Work>
    </rdf:RDF>
  </metadata>
  <path
     style="opacity:1;vector-effect:none;fill-opacity:1;stroke:none;stroke-width:0.37607834;stroke-linecap:round;stroke-linejoin:round;stroke-miterlimit:4;stroke-dasharray:none;stroke-dashoffset:0;stroke-opacity:1;paint-order:stroke fill markers"
     d="M 0.5291667,1.3229164 V 2.3812498 H 2.1435385 2.4081218 3.9423952 4.2069785 5.8208334 V 1.3229164 H 4.2069785 3.9423952 2.4081218 2.1435385 Z M 0.79375003,1.5874998 H 2.1435385 V 2.1166664 H 0.79375003 Z m 1.61437177,0 H 3.9423952 V 2.1166664 H 2.4081218 Z m 1.7988567,0 H 5.5562501 V 2.1166664 H 4.2069785 Z"
     id="rect4527-0-9-6-6"
     inkscape:connector-curvature="0" />
  <path
     style="opacity:1;vector-effect:none;fill-opacity:1;stroke:none;stroke-width:0.37607834;stroke-linecap:round;stroke-linejoin:round;stroke-miterlimit:4;stroke-dasharray:none;stroke-dashoffset:0;stroke-opacity:1;paint-order:stroke fill markers"
     d="M 0.52916694,3.9687506 V 5.027084 H 2.1435387 2.408122 3.9423954 4.2069787 5.8208336 V 3.9687506 H 4.2069787 3.9423954 2.408122 2.1435387 Z M 0.79375027,4.233334 H 2.1435387 V 4.7625006 H 0.79375027 Z m 1.61437173,0 H 3.9423954 V 4.7625006 H 2.408122 Z m 1.7988567,0 H 5.5562503 V 4.7625006 H 4.2069787 Z"
     id="rect4527-0-9-6-8"
     inkscape:connector-curvature="0" />
  <path
     style="opacity:1;vector-effect:none;fill-opacity:1;stroke:none;stroke-width:1.4213984;stroke-linecap:round;stroke-linejoin:round;stroke-miterlimit:4;stroke-dasharray:none;stroke-dashoffset:0;stroke-opacity:1;paint-order:stroke fill markers"
     d="M 2 10 L 2 14 L 8.1015625 14 L 9.1015625 14 L 14.900391 14 L 15.900391 14 L 22 14 L 22 10 L 15.900391 10 L 14.900391 10 L 9.1015625 10 L 8.1015625 10 L 2 10 z M 3 11 L 8.1015625 11 L 8.1015625 13 L 3 13 L 3 11 z M 15.900391 11 L 21 11 L 21 13 L 15.900391 13 L 15.900391 11 z "
     transform="scale(0.26458334)"
     id="rect4527-0-9-6" />
</svg>
